# xmcd
#
# Track frame offsets:
#	150
#	18515
#	36158
#	49957
#	66929
#	82245
#	99560
#	117743
#	132777
#	142875
#	157420
#	169056
#	182854
#	193363
#	210431
#	224502
#
# Disc length: 3180 seconds
#
# Revision: 4
# Processed by: cddbd v1.5.1PL0 Copyright (c) Steve Scherf et al.
# Submitted via: audiograbber 1.83.01
#
DISCID=fe0c6a10
DTITLE=1997-08 Country Radio - 1997-08 Country Radio
DYEAR=1997
DGENRE=Country
TTITLE0=Reba McEntire - What If It's You
TTITLE1=Matt King - A Woman Like You
TTITLE2=Seminole - She Knows Me By Heart
TTITLE3=Lee Roy Parnell - You Can't Get There From Here
TTITLE4=Mark Chesnutt - Thank God For Believers
TTITLE5=Jeff Carson - Here's The Deal
TTITLE6=Kathy Mattea - Love Travels
TTITLE7=Marty Stuart - Sweet Love
TTITLE8=JD Myers - When I Think About You
TTITLE9=Matraca Berg - That Train Don't Run
TTITLE10=Billy Yates - When The Walls Come Tumblin' Down
TTITLE11=Kippi Brannon - I'd Be With You
TTITLE12=Gary Allan - Living In A House Full Of Love
TTITLE13=Bekka and Billy - Better Days
TTITLE14=Raybon Bros. - The Way She's Looking
TTITLE15=John and Audrey Wiggins - Crazy Love
EXTD=
EXTT0=
EXTT1=
EXTT2=
EXTT3=
EXTT4=
EXTT5=
EXTT6=
EXTT7=
EXTT8=
EXTT9=
EXTT10=
EXTT11=
EXTT12=
EXTT13=
EXTT14=
EXTT15=
PLAYORDER=
